<?xml version="1.0" encoding="UTF-8" standalone="no"?>
<!DOCTYPE svg PUBLIC "-//W3C//DTD SVG 1.1//EN"
 "http://www.w3.org/Graphics/SVG/1.1/DTD/svg11.dtd">
<!-- Generated by graphviz version 2.40.1 (20161225.0304)
 -->
<!-- Title: dependencies Pages: 1 -->
<svg width="921pt" height="284pt"
 viewBox="0.00 0.00 921.00 284.00" xmlns="http://www.w3.org/2000/svg" xmlns:xlink="http://www.w3.org/1999/xlink">
<g id="graph0" class="graph" transform="scale(1 1) rotate(0) translate(4 280)">
<title>dependencies</title>
<polygon fill="#ffffff" stroke="transparent" points="-4,4 -4,-280 917,-280 917,4 -4,4"/>
<text text-anchor="start" x="435.5091" y="-42.4" font-family="sans-serif" font-weight="bold" font-size="14.00" fill="#000000">Legend</text>
<polygon fill="#ffffb3" stroke="transparent" points="222.5,-10 222.5,-30 242.5,-30 242.5,-10 222.5,-10"/>
<text text-anchor="start" x="246.129" y="-15.4" font-family="sans-serif" font-size="14.00" fill="#000000"> &#160;Declarations</text>
<polygon fill="#8dd3c7" stroke="transparent" points="335.5,-10 335.5,-30 355.5,-30 355.5,-10 335.5,-10"/>
<text text-anchor="start" x="359.2251" y="-15.4" font-family="sans-serif" font-size="14.00" fill="#000000"> &#160;Module</text>
<polygon fill="#80b1d3" stroke="transparent" points="421.5,-10 421.5,-30 441.5,-30 441.5,-10 421.5,-10"/>
<text text-anchor="start" x="445.2812" y="-15.4" font-family="sans-serif" font-size="14.00" fill="#000000"> &#160;Bootstrap</text>
<polygon fill="#fdb462" stroke="transparent" points="518.5,-10 518.5,-30 538.5,-30 538.5,-10 518.5,-10"/>
<text text-anchor="start" x="542.1732" y="-15.4" font-family="sans-serif" font-size="14.00" fill="#000000"> &#160;Providers</text>
<polygon fill="#fb8072" stroke="transparent" points="614.5,-10 614.5,-30 634.5,-30 634.5,-10 614.5,-10"/>
<text text-anchor="start" x="638.2258" y="-15.4" font-family="sans-serif" font-size="14.00" fill="#000000"> &#160;Exports</text>
<g id="clust1" class="cluster">
<title>cluster_CoreModule</title>
<polygon fill="none" stroke="#000000" stroke-dasharray="1,5" points="8,-70 8,-268 905,-268 905,-70 8,-70"/>
</g>
<g id="clust2" class="cluster">
<title>cluster_CoreModule_declarations</title>
<polygon fill="none" stroke="#000000" points="631,-78 631,-130 897,-130 897,-78 631,-78"/>
</g>
<g id="clust5" class="cluster">
<title>cluster_CoreModule_imports</title>
<polygon fill="none" stroke="#000000" points="354,-78 354,-130 623,-130 623,-78 354,-78"/>
</g>
<g id="clust6" class="cluster">
<title>cluster_CoreModule_exports</title>
<polygon fill="none" stroke="#000000" points="352,-208 352,-260 622,-260 622,-208 352,-208"/>
</g>
<g id="clust8" class="cluster">
<title>cluster_CoreModule_providers</title>
<polygon fill="none" stroke="#000000" points="16,-78 16,-130 346,-130 346,-78 16,-78"/>
</g>
<!-- HeaderComponent -->
<g id="node1" class="node">
<title>HeaderComponent</title>
<polygon fill="#ffffb3" stroke="#000000" points="888.7437,-122 767.2563,-122 767.2563,-86 888.7437,-86 888.7437,-122"/>
<text text-anchor="middle" x="828" y="-99.8" font-family="Times,serif" font-size="14.00" fill="#000000">HeaderComponent</text>
</g>
<!-- CoreModule -->
<g id="node3" class="node">
<title>CoreModule</title>
<polygon fill="#8dd3c7" stroke="#000000" points="526.2619,-187 523.2619,-191 502.2619,-191 499.2619,-187 439.7381,-187 439.7381,-151 526.2619,-151 526.2619,-187"/>
<text text-anchor="middle" x="483" y="-164.8" font-family="Times,serif" font-size="14.00" fill="#000000">CoreModule</text>
</g>
<!-- HeaderComponent&#45;&gt;CoreModule -->
<g id="edge1" class="edge">
<title>HeaderComponent&#45;&gt;CoreModule</title>
<path fill="none" stroke="#000000" d="M828,-122.2843C828,-143.3211 828,-175 828,-175 828,-175 536.3452,-175 536.3452,-175"/>
<polygon fill="#000000" stroke="#000000" points="536.3452,-171.5001 526.3452,-175 536.3451,-178.5001 536.3452,-171.5001"/>
</g>
<!-- ShellComponent -->
<g id="node2" class="node">
<title>ShellComponent</title>
<polygon fill="#ffffb3" stroke="#000000" points="749.1109,-122 638.8891,-122 638.8891,-86 749.1109,-86 749.1109,-122"/>
<text text-anchor="middle" x="694" y="-99.8" font-family="Times,serif" font-size="14.00" fill="#000000">ShellComponent</text>
</g>
<!-- ShellComponent&#45;&gt;CoreModule -->
<g id="edge2" class="edge">
<title>ShellComponent&#45;&gt;CoreModule</title>
<path fill="none" stroke="#000000" d="M694,-122.0225C694,-139.3734 694,-163 694,-163 694,-163 536.4635,-163 536.4635,-163"/>
<polygon fill="#000000" stroke="#000000" points="536.4635,-159.5001 526.4635,-163 536.4635,-166.5001 536.4635,-159.5001"/>
</g>
<!-- HeaderComponent  -->
<g id="node6" class="node">
<title>HeaderComponent </title>
<polygon fill="#fb8072" stroke="#000000" points="613.7436,-252 488.2564,-252 488.2564,-216 613.7436,-216 613.7436,-252"/>
<text text-anchor="middle" x="551" y="-229.8" font-family="Times,serif" font-size="14.00" fill="#000000">HeaderComponent </text>
</g>
<!-- CoreModule&#45;&gt;HeaderComponent  -->
<g id="edge5" class="edge">
<title>CoreModule&#45;&gt;HeaderComponent </title>
<path fill="none" stroke="#000000" stroke-dasharray="5,2" d="M507.3796,-187.1061C507.3796,-187.1061 507.3796,-205.991 507.3796,-205.991"/>
<polygon fill="#000000" stroke="#000000" points="503.8796,-205.9909 507.3796,-215.991 510.8796,-205.991 503.8796,-205.9909"/>
</g>
<!-- MaterialModule  -->
<g id="node7" class="node">
<title>MaterialModule </title>
<polygon fill="#fb8072" stroke="#000000" points="470.4716,-252 359.5284,-252 359.5284,-216 470.4716,-216 470.4716,-252"/>
<text text-anchor="middle" x="415" y="-229.8" font-family="Times,serif" font-size="14.00" fill="#000000">MaterialModule </text>
</g>
<!-- CoreModule&#45;&gt;MaterialModule  -->
<g id="edge6" class="edge">
<title>CoreModule&#45;&gt;MaterialModule </title>
<path fill="none" stroke="#000000" stroke-dasharray="5,2" d="M454.9273,-187.1061C454.9273,-187.1061 454.9273,-205.991 454.9273,-205.991"/>
<polygon fill="#000000" stroke="#000000" points="451.4273,-205.9909 454.9273,-215.991 458.4273,-205.991 451.4273,-205.9909"/>
</g>
<!-- AppRoutingModule -->
<g id="node4" class="node">
<title>AppRoutingModule</title>
<polygon fill="#8dd3c7" stroke="#000000" points="615.2744,-122 612.2744,-126 591.2744,-126 588.2744,-122 486.7256,-122 486.7256,-86 615.2744,-86 615.2744,-122"/>
<text text-anchor="middle" x="551" y="-99.8" font-family="Times,serif" font-size="14.00" fill="#000000">AppRoutingModule</text>
</g>
<!-- AppRoutingModule&#45;&gt;CoreModule -->
<g id="edge3" class="edge">
<title>AppRoutingModule&#45;&gt;CoreModule</title>
<path fill="none" stroke="#000000" d="M506.4969,-122.1061C506.4969,-122.1061 506.4969,-140.991 506.4969,-140.991"/>
<polygon fill="#000000" stroke="#000000" points="502.9969,-140.9909 506.4969,-150.991 509.9969,-140.991 502.9969,-140.9909"/>
</g>
<!-- MaterialModule -->
<g id="node5" class="node">
<title>MaterialModule</title>
<polygon fill="#8dd3c7" stroke="#000000" points="468.4706,-122 465.4706,-126 444.4706,-126 441.4706,-122 361.5294,-122 361.5294,-86 468.4706,-86 468.4706,-122"/>
<text text-anchor="middle" x="415" y="-99.8" font-family="Times,serif" font-size="14.00" fill="#000000">MaterialModule</text>
</g>
<!-- MaterialModule&#45;&gt;CoreModule -->
<g id="edge4" class="edge">
<title>MaterialModule&#45;&gt;CoreModule</title>
<path fill="none" stroke="#000000" d="M454.0523,-122.1061C454.0523,-122.1061 454.0523,-140.991 454.0523,-140.991"/>
<polygon fill="#000000" stroke="#000000" points="450.5523,-140.9909 454.0523,-150.991 457.5523,-140.991 450.5523,-140.9909"/>
</g>
<!-- SignInService -->
<g id="node8" class="node">
<title>SignInService</title>
<ellipse fill="#fdb462" stroke="#000000" cx="272" cy="-104" rx="65.989" ry="18"/>
<text text-anchor="middle" x="272" y="-99.8" font-family="Times,serif" font-size="14.00" fill="#000000">SignInService</text>
</g>
<!-- SignInService&#45;&gt;CoreModule -->
<g id="edge7" class="edge">
<title>SignInService&#45;&gt;CoreModule</title>
<path fill="none" stroke="#000000" d="M272,-122.0225C272,-139.3734 272,-163 272,-163 272,-163 429.5365,-163 429.5365,-163"/>
<polygon fill="#000000" stroke="#000000" points="429.5365,-166.5001 439.5365,-163 429.5365,-159.5001 429.5365,-166.5001"/>
</g>
<!-- UserDetailService -->
<g id="node9" class="node">
<title>UserDetailService</title>
<ellipse fill="#fdb462" stroke="#000000" cx="106" cy="-104" rx="81.6326" ry="18"/>
<text text-anchor="middle" x="106" y="-99.8" font-family="Times,serif" font-size="14.00" fill="#000000">UserDetailService</text>
</g>
<!-- UserDetailService&#45;&gt;CoreModule -->
<g id="edge8" class="edge">
<title>UserDetailService&#45;&gt;CoreModule</title>
<path fill="none" stroke="#000000" d="M106,-122.2843C106,-143.3211 106,-175 106,-175 106,-175 429.385,-175 429.385,-175"/>
<polygon fill="#000000" stroke="#000000" points="429.385,-178.5001 439.385,-175 429.385,-171.5001 429.385,-178.5001"/>
</g>
</g>
</svg>
