<?xml version="1.0" encoding="UTF-8" standalone="no"?>
<!DOCTYPE svg PUBLIC "-//W3C//DTD SVG 1.1//EN"
 "http://www.w3.org/Graphics/SVG/1.1/DTD/svg11.dtd">
<!-- Generated by graphviz version 2.40.1 (20161225.0304)
 -->
<!-- Title: dependencies Pages: 1 -->
<svg width="1597pt" height="284pt"
 viewBox="0.00 0.00 1597.00 284.00" xmlns="http://www.w3.org/2000/svg" xmlns:xlink="http://www.w3.org/1999/xlink">
<g id="graph0" class="graph" transform="scale(1 1) rotate(0) translate(4 280)">
<title>dependencies</title>
<polygon fill="#ffffff" stroke="transparent" points="-4,4 -4,-280 1593,-280 1593,4 -4,4"/>
<text text-anchor="start" x="773.5091" y="-42.4" font-family="sans-serif" font-weight="bold" font-size="14.00" fill="#000000">Legend</text>
<polygon fill="#ffffb3" stroke="transparent" points="560.5,-10 560.5,-30 580.5,-30 580.5,-10 560.5,-10"/>
<text text-anchor="start" x="584.129" y="-15.4" font-family="sans-serif" font-size="14.00" fill="#000000"> &#160;Declarations</text>
<polygon fill="#8dd3c7" stroke="transparent" points="673.5,-10 673.5,-30 693.5,-30 693.5,-10 673.5,-10"/>
<text text-anchor="start" x="697.2251" y="-15.4" font-family="sans-serif" font-size="14.00" fill="#000000"> &#160;Module</text>
<polygon fill="#80b1d3" stroke="transparent" points="759.5,-10 759.5,-30 779.5,-30 779.5,-10 759.5,-10"/>
<text text-anchor="start" x="783.2812" y="-15.4" font-family="sans-serif" font-size="14.00" fill="#000000"> &#160;Bootstrap</text>
<polygon fill="#fdb462" stroke="transparent" points="856.5,-10 856.5,-30 876.5,-30 876.5,-10 856.5,-10"/>
<text text-anchor="start" x="880.1732" y="-15.4" font-family="sans-serif" font-size="14.00" fill="#000000"> &#160;Providers</text>
<polygon fill="#fb8072" stroke="transparent" points="952.5,-10 952.5,-30 972.5,-30 972.5,-10 952.5,-10"/>
<text text-anchor="start" x="976.2258" y="-15.4" font-family="sans-serif" font-size="14.00" fill="#000000"> &#160;Exports</text>
<g id="clust1" class="cluster">
<title>cluster_SharedModule</title>
<polygon fill="none" stroke="#000000" stroke-dasharray="1,5" points="8,-70 8,-268 1581,-268 1581,-70 8,-70"/>
</g>
<g id="clust2" class="cluster">
<title>cluster_SharedModule_declarations</title>
<polygon fill="none" stroke="#000000" points="146,-78 146,-130 1573,-130 1573,-78 146,-78"/>
</g>
<g id="clust11" class="cluster">
<title>cluster_SharedModule_imports</title>
<polygon fill="none" stroke="#000000" points="16,-78 16,-130 138,-130 138,-78 16,-78"/>
</g>
<g id="clust12" class="cluster">
<title>cluster_SharedModule_exports</title>
<polygon fill="none" stroke="#000000" points="226,-208 226,-260 1264,-260 1264,-208 226,-208"/>
</g>
<!-- ConfirmationModalComponent -->
<g id="node1" class="node">
<title>ConfirmationModalComponent</title>
<polygon fill="#ffffb3" stroke="#000000" points="1564.8173,-122 1371.1827,-122 1371.1827,-86 1564.8173,-86 1564.8173,-122"/>
<text text-anchor="middle" x="1468" y="-99.8" font-family="Times,serif" font-size="14.00" fill="#000000">ConfirmationModalComponent</text>
</g>
<!-- SharedModule -->
<g id="node9" class="node">
<title>SharedModule</title>
<polygon fill="#8dd3c7" stroke="#000000" points="804.4231,-187 801.4231,-191 780.4231,-191 777.4231,-187 705.5769,-187 705.5769,-151 804.4231,-151 804.4231,-187"/>
<text text-anchor="middle" x="755" y="-164.8" font-family="Times,serif" font-size="14.00" fill="#000000">SharedModule</text>
</g>
<!-- ConfirmationModalComponent&#45;&gt;SharedModule -->
<g id="edge1" class="edge">
<title>ConfirmationModalComponent&#45;&gt;SharedModule</title>
<path fill="none" stroke="#000000" d="M1468,-122.2228C1468,-142.3652 1468,-172 1468,-172 1468,-172 814.2887,-172 814.2887,-172"/>
<polygon fill="#000000" stroke="#000000" points="814.2887,-168.5001 804.2887,-172 814.2887,-175.5001 814.2887,-168.5001"/>
</g>
<!-- HomeFilterPipe -->
<g id="node2" class="node">
<title>HomeFilterPipe</title>
<polygon fill="#ffffb3" stroke="#000000" points="1353.9301,-122 1248.0699,-122 1248.0699,-86 1353.9301,-86 1353.9301,-122"/>
<text text-anchor="middle" x="1301" y="-99.8" font-family="Times,serif" font-size="14.00" fill="#000000">HomeFilterPipe</text>
</g>
<!-- HomeFilterPipe&#45;&gt;SharedModule -->
<g id="edge2" class="edge">
<title>HomeFilterPipe&#45;&gt;SharedModule</title>
<path fill="none" stroke="#000000" d="M1252.375,-122.2222C1252.375,-140.8285 1252.375,-167 1252.375,-167 1252.375,-167 814.5086,-167 814.5086,-167"/>
<polygon fill="#000000" stroke="#000000" points="814.5086,-163.5001 804.5086,-167 814.5086,-170.5001 814.5086,-163.5001"/>
</g>
<!-- MovieBookingComponent -->
<g id="node3" class="node">
<title>MovieBookingComponent</title>
<polygon fill="#ffffb3" stroke="#000000" points="1230.1094,-122 1063.8906,-122 1063.8906,-86 1230.1094,-86 1230.1094,-122"/>
<text text-anchor="middle" x="1147" y="-99.8" font-family="Times,serif" font-size="14.00" fill="#000000">MovieBookingComponent</text>
</g>
<!-- MovieBookingComponent&#45;&gt;SharedModule -->
<g id="edge3" class="edge">
<title>MovieBookingComponent&#45;&gt;SharedModule</title>
<path fill="none" stroke="#000000" d="M1096.875,-122.0336C1096.875,-139.0597 1096.875,-162 1096.875,-162 1096.875,-162 814.3464,-162 814.3464,-162"/>
<polygon fill="#000000" stroke="#000000" points="814.3465,-158.5001 804.3464,-162 814.3464,-165.5001 814.3465,-158.5001"/>
</g>
<!-- MovieDropdownsComponent -->
<g id="node4" class="node">
<title>MovieDropdownsComponent</title>
<polygon fill="#ffffb3" stroke="#000000" points="1045.7007,-122 862.2993,-122 862.2993,-86 1045.7007,-86 1045.7007,-122"/>
<text text-anchor="middle" x="954" y="-99.8" font-family="Times,serif" font-size="14.00" fill="#000000">MovieDropdownsComponent</text>
</g>
<!-- MovieDropdownsComponent&#45;&gt;SharedModule -->
<g id="edge4" class="edge">
<title>MovieDropdownsComponent&#45;&gt;SharedModule</title>
<path fill="none" stroke="#000000" d="M902.375,-122.2396C902.375,-137.5706 902.375,-157 902.375,-157 902.375,-157 814.4837,-157 814.4837,-157"/>
<polygon fill="#000000" stroke="#000000" points="814.4838,-153.5001 804.4837,-157 814.4837,-160.5001 814.4838,-153.5001"/>
</g>
<!-- PaymentBookingComponent -->
<g id="node5" class="node">
<title>PaymentBookingComponent</title>
<polygon fill="#ffffb3" stroke="#000000" points="844.0532,-122 665.9468,-122 665.9468,-86 844.0532,-86 844.0532,-122"/>
<text text-anchor="middle" x="755" y="-99.8" font-family="Times,serif" font-size="14.00" fill="#000000">PaymentBookingComponent</text>
</g>
<!-- PaymentBookingComponent&#45;&gt;SharedModule -->
<g id="edge5" class="edge">
<title>PaymentBookingComponent&#45;&gt;SharedModule</title>
<path fill="none" stroke="#000000" d="M755,-122.1061C755,-122.1061 755,-140.991 755,-140.991"/>
<polygon fill="#000000" stroke="#000000" points="751.5001,-140.9909 755,-150.991 758.5001,-140.991 751.5001,-140.9909"/>
</g>
<!-- PreBookingComponent -->
<g id="node6" class="node">
<title>PreBookingComponent</title>
<polygon fill="#ffffb3" stroke="#000000" points="648.2176,-122 499.7824,-122 499.7824,-86 648.2176,-86 648.2176,-122"/>
<text text-anchor="middle" x="574" y="-99.8" font-family="Times,serif" font-size="14.00" fill="#000000">PreBookingComponent</text>
</g>
<!-- PreBookingComponent&#45;&gt;SharedModule -->
<g id="edge6" class="edge">
<title>PreBookingComponent&#45;&gt;SharedModule</title>
<path fill="none" stroke="#000000" d="M617.125,-122.2396C617.125,-137.5706 617.125,-157 617.125,-157 617.125,-157 695.6134,-157 695.6134,-157"/>
<polygon fill="#000000" stroke="#000000" points="695.6134,-160.5001 705.6134,-157 695.6134,-153.5001 695.6134,-160.5001"/>
</g>
<!-- SeatReservationModalComponent -->
<g id="node7" class="node">
<title>SeatReservationModalComponent</title>
<polygon fill="#ffffb3" stroke="#000000" points="481.3515,-122 272.6485,-122 272.6485,-86 481.3515,-86 481.3515,-122"/>
<text text-anchor="middle" x="377" y="-99.8" font-family="Times,serif" font-size="14.00" fill="#000000">SeatReservationModalComponent</text>
</g>
<!-- SeatReservationModalComponent&#45;&gt;SharedModule -->
<g id="edge7" class="edge">
<title>SeatReservationModalComponent&#45;&gt;SharedModule</title>
<path fill="none" stroke="#000000" d="M418.625,-122.0336C418.625,-139.0597 418.625,-162 418.625,-162 418.625,-162 695.7279,-162 695.7279,-162"/>
<polygon fill="#000000" stroke="#000000" points="695.728,-165.5001 705.7279,-162 695.7279,-158.5001 695.728,-165.5001"/>
</g>
<!-- SortMoviePipe -->
<g id="node8" class="node">
<title>SortMoviePipe</title>
<polygon fill="#ffffb3" stroke="#000000" points="254.2717,-122 153.7283,-122 153.7283,-86 254.2717,-86 254.2717,-122"/>
<text text-anchor="middle" x="204" y="-99.8" font-family="Times,serif" font-size="14.00" fill="#000000">SortMoviePipe</text>
</g>
<!-- SortMoviePipe&#45;&gt;SharedModule -->
<g id="edge8" class="edge">
<title>SortMoviePipe&#45;&gt;SharedModule</title>
<path fill="none" stroke="#000000" d="M244.125,-122.2222C244.125,-140.8285 244.125,-167 244.125,-167 244.125,-167 695.551,-167 695.551,-167"/>
<polygon fill="#000000" stroke="#000000" points="695.551,-170.5001 705.551,-167 695.5509,-163.5001 695.551,-170.5001"/>
</g>
<!-- HomeFilterPipe  -->
<g id="node11" class="node">
<title>HomeFilterPipe </title>
<polygon fill="#fb8072" stroke="#000000" points="1256.4292,-252 1147.5708,-252 1147.5708,-216 1256.4292,-216 1256.4292,-252"/>
<text text-anchor="middle" x="1202" y="-229.8" font-family="Times,serif" font-size="14.00" fill="#000000">HomeFilterPipe </text>
</g>
<!-- SharedModule&#45;&gt;HomeFilterPipe  -->
<g id="edge10" class="edge">
<title>SharedModule&#45;&gt;HomeFilterPipe </title>
<path fill="none" stroke="#000000" stroke-dasharray="5,2" d="M804.3395,-177C918.0368,-177 1188.7951,-177 1188.7951,-177 1188.7951,-177 1188.7951,-205.9648 1188.7951,-205.9648"/>
<polygon fill="#000000" stroke="#000000" points="1185.2951,-205.9648 1188.7951,-215.9648 1192.2951,-205.9649 1185.2951,-205.9648"/>
</g>
<!-- MovieBookingComponent  -->
<g id="node12" class="node">
<title>MovieBookingComponent </title>
<polygon fill="#fb8072" stroke="#000000" points="1129.6098,-252 960.3902,-252 960.3902,-216 1129.6098,-216 1129.6098,-252"/>
<text text-anchor="middle" x="1045" y="-229.8" font-family="Times,serif" font-size="14.00" fill="#000000">MovieBookingComponent </text>
</g>
<!-- SharedModule&#45;&gt;MovieBookingComponent  -->
<g id="edge11" class="edge">
<title>SharedModule&#45;&gt;MovieBookingComponent </title>
<path fill="none" stroke="#000000" stroke-dasharray="5,2" d="M804.273,-182C876.5675,-182 1002.8978,-182 1002.8978,-182 1002.8978,-182 1002.8978,-205.8129 1002.8978,-205.8129"/>
<polygon fill="#000000" stroke="#000000" points="999.3979,-205.8129 1002.8978,-215.8129 1006.3979,-205.813 999.3979,-205.8129"/>
</g>
<!-- MovieDropdownsComponent  -->
<g id="node13" class="node">
<title>MovieDropdownsComponent </title>
<polygon fill="#fb8072" stroke="#000000" points="942.2008,-252 755.7992,-252 755.7992,-216 942.2008,-216 942.2008,-252"/>
<text text-anchor="middle" x="849" y="-229.8" font-family="Times,serif" font-size="14.00" fill="#000000">MovieDropdownsComponent </text>
</g>
<!-- SharedModule&#45;&gt;MovieDropdownsComponent  -->
<g id="edge12" class="edge">
<title>SharedModule&#45;&gt;MovieDropdownsComponent </title>
<path fill="none" stroke="#000000" stroke-dasharray="5,2" d="M779.9304,-187.1061C779.9304,-187.1061 779.9304,-205.991 779.9304,-205.991"/>
<polygon fill="#000000" stroke="#000000" points="776.4305,-205.9909 779.9304,-215.991 783.4305,-205.991 776.4305,-205.9909"/>
</g>
<!-- PreBookingComponent  -->
<g id="node14" class="node">
<title>PreBookingComponent </title>
<polygon fill="#fb8072" stroke="#000000" points="737.7177,-252 586.2823,-252 586.2823,-216 737.7177,-216 737.7177,-252"/>
<text text-anchor="middle" x="662" y="-229.8" font-family="Times,serif" font-size="14.00" fill="#000000">PreBookingComponent </text>
</g>
<!-- SharedModule&#45;&gt;PreBookingComponent  -->
<g id="edge13" class="edge">
<title>SharedModule&#45;&gt;PreBookingComponent </title>
<path fill="none" stroke="#000000" stroke-dasharray="5,2" d="M721.8238,-187.1061C721.8238,-187.1061 721.8238,-205.991 721.8238,-205.991"/>
<polygon fill="#000000" stroke="#000000" points="718.3239,-205.9909 721.8238,-215.991 725.3239,-205.991 718.3239,-205.9909"/>
</g>
<!-- SeatReservationModalComponent  -->
<g id="node15" class="node">
<title>SeatReservationModalComponent </title>
<polygon fill="#fb8072" stroke="#000000" points="568.3517,-252 355.6483,-252 355.6483,-216 568.3517,-216 568.3517,-252"/>
<text text-anchor="middle" x="462" y="-229.8" font-family="Times,serif" font-size="14.00" fill="#000000">SeatReservationModalComponent </text>
</g>
<!-- SharedModule&#45;&gt;SeatReservationModalComponent  -->
<g id="edge14" class="edge">
<title>SharedModule&#45;&gt;SeatReservationModalComponent </title>
<path fill="none" stroke="#000000" stroke-dasharray="5,2" d="M705.6858,-182C640.562,-182 534.0335,-182 534.0335,-182 534.0335,-182 534.0335,-205.8129 534.0335,-205.8129"/>
<polygon fill="#000000" stroke="#000000" points="530.5336,-205.8129 534.0335,-215.8129 537.5336,-205.813 530.5336,-205.8129"/>
</g>
<!-- SortMoviePipe  -->
<g id="node16" class="node">
<title>SortMoviePipe </title>
<polygon fill="#fb8072" stroke="#000000" points="338.2718,-252 233.7282,-252 233.7282,-216 338.2718,-216 338.2718,-252"/>
<text text-anchor="middle" x="286" y="-229.8" font-family="Times,serif" font-size="14.00" fill="#000000">SortMoviePipe </text>
</g>
<!-- SharedModule&#45;&gt;SortMoviePipe  -->
<g id="edge15" class="edge">
<title>SharedModule&#45;&gt;SortMoviePipe </title>
<path fill="none" stroke="#000000" stroke-dasharray="5,2" d="M705.5939,-177C588.7883,-177 305.355,-177 305.355,-177 305.355,-177 305.355,-205.9648 305.355,-205.9648"/>
<polygon fill="#000000" stroke="#000000" points="301.8551,-205.9648 305.355,-215.9648 308.8551,-205.9649 301.8551,-205.9648"/>
</g>
<!-- MaterialModule -->
<g id="node10" class="node">
<title>MaterialModule</title>
<polygon fill="#8dd3c7" stroke="#000000" points="130.4706,-122 127.4706,-126 106.4706,-126 103.4706,-122 23.5294,-122 23.5294,-86 130.4706,-86 130.4706,-122"/>
<text text-anchor="middle" x="77" y="-99.8" font-family="Times,serif" font-size="14.00" fill="#000000">MaterialModule</text>
</g>
<!-- MaterialModule&#45;&gt;SharedModule -->
<g id="edge9" class="edge">
<title>MaterialModule&#45;&gt;SharedModule</title>
<path fill="none" stroke="#000000" d="M77,-122.2228C77,-142.3652 77,-172 77,-172 77,-172 695.6938,-172 695.6938,-172"/>
<polygon fill="#000000" stroke="#000000" points="695.6938,-175.5001 705.6938,-172 695.6937,-168.5001 695.6938,-175.5001"/>
</g>
</g>
</svg>
