<?xml version="1.0" encoding="UTF-8" standalone="no"?>
<!DOCTYPE svg PUBLIC "-//W3C//DTD SVG 1.1//EN"
 "http://www.w3.org/Graphics/SVG/1.1/DTD/svg11.dtd">
<!-- Generated by graphviz version 2.40.1 (20161225.0304)
 -->
<!-- Title: dependencies Pages: 1 -->
<svg width="907pt" height="284pt"
 viewBox="0.00 0.00 907.00 284.00" xmlns="http://www.w3.org/2000/svg" xmlns:xlink="http://www.w3.org/1999/xlink">
<g id="graph0" class="graph" transform="scale(1 1) rotate(0) translate(4 280)">
<title>dependencies</title>
<polygon fill="#ffffff" stroke="transparent" points="-4,4 -4,-280 903,-280 903,4 -4,4"/>
<text text-anchor="start" x="428.5091" y="-42.4" font-family="sans-serif" font-weight="bold" font-size="14.00" fill="#000000">Legend</text>
<polygon fill="#ffffb3" stroke="transparent" points="215.5,-10 215.5,-30 235.5,-30 235.5,-10 215.5,-10"/>
<text text-anchor="start" x="239.129" y="-15.4" font-family="sans-serif" font-size="14.00" fill="#000000"> &#160;Declarations</text>
<polygon fill="#8dd3c7" stroke="transparent" points="328.5,-10 328.5,-30 348.5,-30 348.5,-10 328.5,-10"/>
<text text-anchor="start" x="352.2251" y="-15.4" font-family="sans-serif" font-size="14.00" fill="#000000"> &#160;Module</text>
<polygon fill="#80b1d3" stroke="transparent" points="414.5,-10 414.5,-30 434.5,-30 434.5,-10 414.5,-10"/>
<text text-anchor="start" x="438.2812" y="-15.4" font-family="sans-serif" font-size="14.00" fill="#000000"> &#160;Bootstrap</text>
<polygon fill="#fdb462" stroke="transparent" points="511.5,-10 511.5,-30 531.5,-30 531.5,-10 511.5,-10"/>
<text text-anchor="start" x="535.1732" y="-15.4" font-family="sans-serif" font-size="14.00" fill="#000000"> &#160;Providers</text>
<polygon fill="#fb8072" stroke="transparent" points="607.5,-10 607.5,-30 627.5,-30 627.5,-10 607.5,-10"/>
<text text-anchor="start" x="631.2258" y="-15.4" font-family="sans-serif" font-size="14.00" fill="#000000"> &#160;Exports</text>
<g id="clust1" class="cluster">
<title>cluster_SearchModule</title>
<polygon fill="none" stroke="#000000" stroke-dasharray="1,5" points="8,-70 8,-268 891,-268 891,-70 8,-70"/>
</g>
<g id="clust2" class="cluster">
<title>cluster_SearchModule_declarations</title>
<polygon fill="none" stroke="#000000" points="424,-78 424,-130 883,-130 883,-78 424,-78"/>
</g>
<g id="clust6" class="cluster">
<title>cluster_SearchModule_imports</title>
<polygon fill="none" stroke="#000000" points="16,-78 16,-130 416,-130 416,-78 16,-78"/>
</g>
<g id="clust7" class="cluster">
<title>cluster_SearchModule_exports</title>
<polygon fill="none" stroke="#000000" points="360,-208 360,-260 486,-260 486,-208 360,-208"/>
</g>
<!-- SDialogCardsComponent -->
<g id="node1" class="node">
<title>SDialogCardsComponent</title>
<polygon fill="#ffffb3" stroke="#000000" points="874.8738,-122 715.1262,-122 715.1262,-86 874.8738,-86 874.8738,-122"/>
<text text-anchor="middle" x="795" y="-99.8" font-family="Times,serif" font-size="14.00" fill="#000000">SDialogCardsComponent</text>
</g>
<!-- SearchModule -->
<g id="node4" class="node">
<title>SearchModule</title>
<polygon fill="#8dd3c7" stroke="#000000" points="471.6375,-187 468.6375,-191 447.6375,-191 444.6375,-187 374.3625,-187 374.3625,-151 471.6375,-151 471.6375,-187"/>
<text text-anchor="middle" x="423" y="-164.8" font-family="Times,serif" font-size="14.00" fill="#000000">SearchModule</text>
</g>
<!-- SDialogCardsComponent&#45;&gt;SearchModule -->
<g id="edge1" class="edge">
<title>SDialogCardsComponent&#45;&gt;SearchModule</title>
<path fill="none" stroke="#000000" d="M795,-122.2843C795,-143.3211 795,-175 795,-175 795,-175 482.015,-175 482.015,-175"/>
<polygon fill="#000000" stroke="#000000" points="482.0151,-171.5001 472.015,-175 482.015,-178.5001 482.0151,-171.5001"/>
</g>
<!-- SDialogComponent -->
<g id="node2" class="node">
<title>SDialogComponent</title>
<polygon fill="#ffffb3" stroke="#000000" points="696.7176,-122 569.2824,-122 569.2824,-86 696.7176,-86 696.7176,-122"/>
<text text-anchor="middle" x="633" y="-99.8" font-family="Times,serif" font-size="14.00" fill="#000000">SDialogComponent</text>
</g>
<!-- SDialogComponent&#45;&gt;SearchModule -->
<g id="edge2" class="edge">
<title>SDialogComponent&#45;&gt;SearchModule</title>
<path fill="none" stroke="#000000" d="M633,-122.0225C633,-139.3734 633,-163 633,-163 633,-163 481.7061,-163 481.7061,-163"/>
<polygon fill="#000000" stroke="#000000" points="481.7061,-159.5001 471.7061,-163 481.706,-166.5001 481.7061,-159.5001"/>
</g>
<!-- SearchComponent -->
<g id="node3" class="node">
<title>SearchComponent</title>
<polygon fill="#ffffb3" stroke="#000000" points="551.9201,-122 432.0799,-122 432.0799,-86 551.9201,-86 551.9201,-122"/>
<text text-anchor="middle" x="492" y="-99.8" font-family="Times,serif" font-size="14.00" fill="#000000">SearchComponent</text>
</g>
<!-- SearchComponent&#45;&gt;SearchModule -->
<g id="edge3" class="edge">
<title>SearchComponent&#45;&gt;SearchModule</title>
<path fill="none" stroke="#000000" d="M452.0544,-122.1061C452.0544,-122.1061 452.0544,-140.991 452.0544,-140.991"/>
<polygon fill="#000000" stroke="#000000" points="448.5544,-140.9909 452.0544,-150.991 455.5544,-140.991 448.5544,-140.9909"/>
</g>
<!-- MaterialModule  -->
<g id="node8" class="node">
<title>MaterialModule </title>
<polygon fill="#fb8072" stroke="#000000" points="478.4716,-252 367.5284,-252 367.5284,-216 478.4716,-216 478.4716,-252"/>
<text text-anchor="middle" x="423" y="-229.8" font-family="Times,serif" font-size="14.00" fill="#000000">MaterialModule </text>
</g>
<!-- SearchModule&#45;&gt;MaterialModule  -->
<g id="edge7" class="edge">
<title>SearchModule&#45;&gt;MaterialModule </title>
<path fill="none" stroke="#000000" stroke-dasharray="5,2" d="M423,-187.1061C423,-187.1061 423,-205.991 423,-205.991"/>
<polygon fill="#000000" stroke="#000000" points="419.5001,-205.9909 423,-215.991 426.5001,-205.991 419.5001,-205.9909"/>
</g>
<!-- MaterialModule -->
<g id="node5" class="node">
<title>MaterialModule</title>
<polygon fill="#8dd3c7" stroke="#000000" points="408.4706,-122 405.4706,-126 384.4706,-126 381.4706,-122 301.5294,-122 301.5294,-86 408.4706,-86 408.4706,-122"/>
<text text-anchor="middle" x="355" y="-99.8" font-family="Times,serif" font-size="14.00" fill="#000000">MaterialModule</text>
</g>
<!-- MaterialModule&#45;&gt;SearchModule -->
<g id="edge4" class="edge">
<title>MaterialModule&#45;&gt;SearchModule</title>
<path fill="none" stroke="#000000" d="M391.3334,-122.1061C391.3334,-122.1061 391.3334,-140.991 391.3334,-140.991"/>
<polygon fill="#000000" stroke="#000000" points="387.8335,-140.9909 391.3334,-150.991 394.8335,-140.991 387.8335,-140.9909"/>
</g>
<!-- SearchRoutingModule -->
<g id="node6" class="node">
<title>SearchRoutingModule</title>
<polygon fill="#8dd3c7" stroke="#000000" points="283.2548,-122 280.2548,-126 259.2548,-126 256.2548,-122 140.7452,-122 140.7452,-86 283.2548,-86 283.2548,-122"/>
<text text-anchor="middle" x="212" y="-99.8" font-family="Times,serif" font-size="14.00" fill="#000000">SearchRoutingModule</text>
</g>
<!-- SearchRoutingModule&#45;&gt;SearchModule -->
<g id="edge5" class="edge">
<title>SearchRoutingModule&#45;&gt;SearchModule</title>
<path fill="none" stroke="#000000" d="M212,-122.0225C212,-139.3734 212,-163 212,-163 212,-163 364.3274,-163 364.3274,-163"/>
<polygon fill="#000000" stroke="#000000" points="364.3274,-166.5001 374.3274,-163 364.3274,-159.5001 364.3274,-166.5001"/>
</g>
<!-- SharedModule -->
<g id="node7" class="node">
<title>SharedModule</title>
<polygon fill="#8dd3c7" stroke="#000000" points="122.4231,-122 119.4231,-126 98.4231,-126 95.4231,-122 23.5769,-122 23.5769,-86 122.4231,-86 122.4231,-122"/>
<text text-anchor="middle" x="73" y="-99.8" font-family="Times,serif" font-size="14.00" fill="#000000">SharedModule</text>
</g>
<!-- SharedModule&#45;&gt;SearchModule -->
<g id="edge6" class="edge">
<title>SharedModule&#45;&gt;SearchModule</title>
<path fill="none" stroke="#000000" d="M73,-122.2843C73,-143.3211 73,-175 73,-175 73,-175 364.334,-175 364.334,-175"/>
<polygon fill="#000000" stroke="#000000" points="364.334,-178.5001 374.334,-175 364.334,-171.5001 364.334,-178.5001"/>
</g>
</g>
</svg>
