<?xml version="1.0" encoding="UTF-8" standalone="no"?>
<!DOCTYPE svg PUBLIC "-//W3C//DTD SVG 1.1//EN"
 "http://www.w3.org/Graphics/SVG/1.1/DTD/svg11.dtd">
<!-- Generated by graphviz version 2.40.1 (20161225.0304)
 -->
<!-- Title: dependencies Pages: 1 -->
<svg width="915pt" height="284pt"
 viewBox="0.00 0.00 915.00 284.00" xmlns="http://www.w3.org/2000/svg" xmlns:xlink="http://www.w3.org/1999/xlink">
<g id="graph0" class="graph" transform="scale(1 1) rotate(0) translate(4 280)">
<title>dependencies</title>
<polygon fill="#ffffff" stroke="transparent" points="-4,4 -4,-280 911,-280 911,4 -4,4"/>
<text text-anchor="start" x="432.5091" y="-42.4" font-family="sans-serif" font-weight="bold" font-size="14.00" fill="#000000">Legend</text>
<polygon fill="#ffffb3" stroke="transparent" points="219.5,-10 219.5,-30 239.5,-30 239.5,-10 219.5,-10"/>
<text text-anchor="start" x="243.129" y="-15.4" font-family="sans-serif" font-size="14.00" fill="#000000"> &#160;Declarations</text>
<polygon fill="#8dd3c7" stroke="transparent" points="332.5,-10 332.5,-30 352.5,-30 352.5,-10 332.5,-10"/>
<text text-anchor="start" x="356.2251" y="-15.4" font-family="sans-serif" font-size="14.00" fill="#000000"> &#160;Module</text>
<polygon fill="#80b1d3" stroke="transparent" points="418.5,-10 418.5,-30 438.5,-30 438.5,-10 418.5,-10"/>
<text text-anchor="start" x="442.2812" y="-15.4" font-family="sans-serif" font-size="14.00" fill="#000000"> &#160;Bootstrap</text>
<polygon fill="#fdb462" stroke="transparent" points="515.5,-10 515.5,-30 535.5,-30 535.5,-10 515.5,-10"/>
<text text-anchor="start" x="539.1732" y="-15.4" font-family="sans-serif" font-size="14.00" fill="#000000"> &#160;Providers</text>
<polygon fill="#fb8072" stroke="transparent" points="611.5,-10 611.5,-30 631.5,-30 631.5,-10 611.5,-10"/>
<text text-anchor="start" x="635.2258" y="-15.4" font-family="sans-serif" font-size="14.00" fill="#000000"> &#160;Exports</text>
<g id="clust1" class="cluster">
<title>cluster_AppModule</title>
<polygon fill="none" stroke="#000000" stroke-dasharray="1,5" points="8,-70 8,-268 899,-268 899,-70 8,-70"/>
</g>
<g id="clust2" class="cluster">
<title>cluster_AppModule_declarations</title>
<polygon fill="none" stroke="#000000" points="632,-78 632,-130 891,-130 891,-78 632,-78"/>
</g>
<g id="clust5" class="cluster">
<title>cluster_AppModule_imports</title>
<polygon fill="none" stroke="#000000" points="16,-78 16,-130 624,-130 624,-78 16,-78"/>
</g>
<g id="clust7" class="cluster">
<title>cluster_AppModule_bootstrap</title>
<polygon fill="none" stroke="#000000" points="373,-208 373,-260 497,-260 497,-208 373,-208"/>
</g>
<!-- AppComponent -->
<g id="node1" class="node">
<title>AppComponent</title>
<polygon fill="#ffffb3" stroke="#000000" points="882.9399,-122 777.0601,-122 777.0601,-86 882.9399,-86 882.9399,-122"/>
<text text-anchor="middle" x="830" y="-99.8" font-family="Times,serif" font-size="14.00" fill="#000000">AppComponent</text>
</g>
<!-- AppModule -->
<g id="node3" class="node">
<title>AppModule</title>
<polygon fill="#8dd3c7" stroke="#000000" points="476.6571,-187 473.6571,-191 452.6571,-191 449.6571,-187 393.3429,-187 393.3429,-151 476.6571,-151 476.6571,-187"/>
<text text-anchor="middle" x="435" y="-164.8" font-family="Times,serif" font-size="14.00" fill="#000000">AppModule</text>
</g>
<!-- AppComponent&#45;&gt;AppModule -->
<g id="edge1" class="edge">
<title>AppComponent&#45;&gt;AppModule</title>
<path fill="none" stroke="#000000" d="M830,-122.2921C830,-144.2057 830,-178 830,-178 830,-178 486.898,-178 486.898,-178"/>
<polygon fill="#000000" stroke="#000000" points="486.898,-174.5001 476.898,-178 486.8979,-181.5001 486.898,-174.5001"/>
</g>
<!-- ProfileComponent -->
<g id="node2" class="node">
<title>ProfileComponent</title>
<polygon fill="#ffffb3" stroke="#000000" points="759.9328,-122 640.0672,-122 640.0672,-86 759.9328,-86 759.9328,-122"/>
<text text-anchor="middle" x="700" y="-99.8" font-family="Times,serif" font-size="14.00" fill="#000000">ProfileComponent</text>
</g>
<!-- ProfileComponent&#45;&gt;AppModule -->
<g id="edge2" class="edge">
<title>ProfileComponent&#45;&gt;AppModule</title>
<path fill="none" stroke="#000000" d="M700,-122.1061C700,-141.3391 700,-169 700,-169 700,-169 486.6978,-169 486.6978,-169"/>
<polygon fill="#000000" stroke="#000000" points="486.6978,-165.5001 476.6978,-169 486.6977,-172.5001 486.6978,-165.5001"/>
</g>
<!-- AppComponent  -->
<g id="node9" class="node">
<title>AppComponent </title>
<polygon fill="#80b1d3" stroke="#000000" points="489.439,-252 380.561,-252 380.561,-216 489.439,-216 489.439,-252"/>
<text text-anchor="middle" x="435" y="-229.8" font-family="Times,serif" font-size="14.00" fill="#000000">AppComponent </text>
</g>
<!-- AppModule&#45;&gt;AppComponent  -->
<g id="edge8" class="edge">
<title>AppModule&#45;&gt;AppComponent </title>
<path fill="none" stroke="#000000" stroke-dasharray="1,5" d="M435,-187.1061C435,-187.1061 435,-205.991 435,-205.991"/>
<polygon fill="#000000" stroke="#000000" points="431.5001,-205.9909 435,-215.991 438.5001,-205.991 431.5001,-205.9909"/>
</g>
<!-- AdminModule -->
<g id="node4" class="node">
<title>AdminModule</title>
<polygon fill="#8dd3c7" stroke="#000000" points="616.4386,-122 613.4386,-126 592.4386,-126 589.4386,-122 517.5614,-122 517.5614,-86 616.4386,-86 616.4386,-122"/>
<text text-anchor="middle" x="567" y="-99.8" font-family="Times,serif" font-size="14.00" fill="#000000">AdminModule</text>
</g>
<!-- AdminModule&#45;&gt;AppModule -->
<g id="edge3" class="edge">
<title>AdminModule&#45;&gt;AppModule</title>
<path fill="none" stroke="#000000" d="M567,-122.027C567,-138.3976 567,-160 567,-160 567,-160 486.7656,-160 486.7656,-160"/>
<polygon fill="#000000" stroke="#000000" points="486.7657,-156.5001 476.7656,-160 486.7656,-163.5001 486.7657,-156.5001"/>
</g>
<!-- AppRoutingModule -->
<g id="node5" class="node">
<title>AppRoutingModule</title>
<polygon fill="#8dd3c7" stroke="#000000" points="499.2744,-122 496.2744,-126 475.2744,-126 472.2744,-122 370.7256,-122 370.7256,-86 499.2744,-86 499.2744,-122"/>
<text text-anchor="middle" x="435" y="-99.8" font-family="Times,serif" font-size="14.00" fill="#000000">AppRoutingModule</text>
</g>
<!-- AppRoutingModule&#45;&gt;AppModule -->
<g id="edge4" class="edge">
<title>AppRoutingModule&#45;&gt;AppModule</title>
<path fill="none" stroke="#000000" d="M435,-122.1061C435,-122.1061 435,-140.991 435,-140.991"/>
<polygon fill="#000000" stroke="#000000" points="431.5001,-140.9909 435,-150.991 438.5001,-140.991 431.5001,-140.9909"/>
</g>
<!-- CoreModule -->
<g id="node6" class="node">
<title>CoreModule</title>
<polygon fill="#8dd3c7" stroke="#000000" points="352.2619,-122 349.2619,-126 328.2619,-126 325.2619,-122 265.7381,-122 265.7381,-86 352.2619,-86 352.2619,-122"/>
<text text-anchor="middle" x="309" y="-99.8" font-family="Times,serif" font-size="14.00" fill="#000000">CoreModule</text>
</g>
<!-- CoreModule&#45;&gt;AppModule -->
<g id="edge5" class="edge">
<title>CoreModule&#45;&gt;AppModule</title>
<path fill="none" stroke="#000000" d="M309,-122.027C309,-138.3976 309,-160 309,-160 309,-160 383.0438,-160 383.0438,-160"/>
<polygon fill="#000000" stroke="#000000" points="383.0439,-163.5001 393.0438,-160 383.0438,-156.5001 383.0439,-163.5001"/>
</g>
<!-- MaterialModule -->
<g id="node7" class="node">
<title>MaterialModule</title>
<polygon fill="#8dd3c7" stroke="#000000" points="247.4706,-122 244.4706,-126 223.4706,-126 220.4706,-122 140.5294,-122 140.5294,-86 247.4706,-86 247.4706,-122"/>
<text text-anchor="middle" x="194" y="-99.8" font-family="Times,serif" font-size="14.00" fill="#000000">MaterialModule</text>
</g>
<!-- MaterialModule&#45;&gt;AppModule -->
<g id="edge6" class="edge">
<title>MaterialModule&#45;&gt;AppModule</title>
<path fill="none" stroke="#000000" d="M194,-122.1061C194,-141.3391 194,-169 194,-169 194,-169 383.2961,-169 383.2961,-169"/>
<polygon fill="#000000" stroke="#000000" points="383.2962,-172.5001 393.2961,-169 383.2961,-165.5001 383.2962,-172.5001"/>
</g>
<!-- SharedModule -->
<g id="node8" class="node">
<title>SharedModule</title>
<polygon fill="#8dd3c7" stroke="#000000" points="122.4231,-122 119.4231,-126 98.4231,-126 95.4231,-122 23.5769,-122 23.5769,-86 122.4231,-86 122.4231,-122"/>
<text text-anchor="middle" x="73" y="-99.8" font-family="Times,serif" font-size="14.00" fill="#000000">SharedModule</text>
</g>
<!-- SharedModule&#45;&gt;AppModule -->
<g id="edge7" class="edge">
<title>SharedModule&#45;&gt;AppModule</title>
<path fill="none" stroke="#000000" d="M73,-122.2921C73,-144.2057 73,-178 73,-178 73,-178 383.1204,-178 383.1204,-178"/>
<polygon fill="#000000" stroke="#000000" points="383.1204,-181.5001 393.1204,-178 383.1203,-174.5001 383.1204,-181.5001"/>
</g>
</g>
</svg>
